# xmcd
#
# Track frame offsets:
#	150
#	15578
#	37719
#	53769
#	70163
#	87648
#	100942
#	130275
#	150174
#	170662
#	184642
#	200449
#	217187
#	235807
#	249381
#	268986
#	285234
#	298637
#	315547
#	330872
#
# Disc length: 4632 seconds
#
# Revision: 0
# Processed by: cddbd v1.5.2PL0 Copyright (c) Steve Scherf et al.
# Submitted via: audiograbber 1.83.01
#
DISCID=14121614
DTITLE=Various Artist - 100 Hits Disco Fever CD5
DYEAR=1900
DGENRE=Disco
TTITLE0=Rodney Franklin - The Groove
TTITLE1=Harvey Mason - Groovin' You
TTITLE2=Keni Burke - Can't Get Enough (Do It All Night)
TTITLE3=McFadden And Whitehead - Ain't No Stopping Us Now
TTITLE4=Odyssey - Use It Up And Wear It Out
TTITLE5=The Hues Corporation - Rockin' Soul
TTITLE6=The Intruders - I'll Always Love My Mama
TTITLE7=Average White Band - When Will You Be Mine
TTITLE8=Johnny Taylor - Disco 9000
TTITLE9=The Dooleys - Love Of My Life
TTITLE10=Gary's Gang - Keep On Dancin'
TTITLE11=Bernie Nolan - I'm Every Woman
TTITLE12=KC and The Sunshine Band - Give It Up
TTITLE13=Boz Scaggs - What Can I Say
TTITLE14=Mick Jackson - Weekend
TTITLE15=Leo Sayer - Thunder In My Heart
TTITLE16=Glitter Band - Angel Face
TTITLE17=Boney M - Ma Baker
TTITLE18=The Brothers - Are You Ready For This
TTITLE19=Biddu - Summer Of '42
EXTD=(p)2014 Demon Music Group
EXTT0=
EXTT1=
EXTT2=
EXTT3=
EXTT4=
EXTT5=
EXTT6=
EXTT7=
EXTT8=
EXTT9=
EXTT10=
EXTT11=
EXTT12=
EXTT13=
EXTT14=
EXTT15=
EXTT16=
EXTT17=
EXTT18=
EXTT19=
PLAYORDER=
